<svg width="248" height="62" viewBox="0 0 248 62" fill="none" xmlns="http://www.w3.org/2000/svg">
<path d="M100.4 48.6868L102.608 18.1108L105.008 15.9988L131.072 17.7268L130.784 22.2388L107.024 20.7028L105.152 46.4788L128 45.3268L127.184 36.6388L113.792 36.0628L113.984 31.5028L129.344 32.2228L131.504 34.2388L132.752 47.2468L130.64 49.7428L102.8 51.0868L100.4 48.6868ZM157.739 36.0628L158.555 40.5748L144.827 42.8788L140.699 51.9508L136.571 50.1268L152.555 15.1828L156.683 15.1348L171.275 45.8068L167.195 47.7748L154.619 21.4708L147.131 37.8868L157.739 36.0628ZM175.353 48.2548L177.945 18.3988L180.777 16.4308L204.681 22.2388L206.457 24.3508L207.225 42.2548L205.497 44.5588L178.137 50.6548L175.353 48.2548ZM180.153 45.5668L202.665 40.5748L201.993 26.2708L182.217 21.3748L180.153 45.5668ZM232.692 36.0628L233.508 40.5748L219.78 42.8788L215.652 51.9508L211.524 50.1268L227.508 15.1828L231.636 15.1348L246.228 45.8068L242.148 47.7748L229.572 21.4708L222.084 37.8868L232.692 36.0628Z" fill="#333333"/>
<path d="M8.81837 53.714L7.28103 22.7514L11.0559 20.9254L34.3175 41.7752L30.1466 17.7992L34.5919 17.0259L39.8733 47.386L36.1395 49.4484L12.0843 27.9572L13.3068 53.4691L8.81837 53.714ZM48.2805 47.921L45.6856 45.8877L43.1739 18.846L44.8618 16.5061L65.3937 10.7419L68.2785 12.4812L74.3227 41.3444L72.4477 44.0092L48.2805 47.921ZM69.4435 39.9033L64.3083 15.7054L47.8249 20.3755L50.0136 43.0398L69.4435 39.9033Z" fill="#4EAAA7"/>
<path d="M78.4787 31.1696L77.3714 6.31967L82.563 6.19606L83.5984 30.9123L78.4787 31.1696ZM79.0221 43.2553L80.0766 37.274L86.0887 38.2257L85.0424 44.2543L79.0221 43.2553Z" fill="#408F8C"/>
</svg>
